<svg xmlns="http://www.w3.org/2000/svg" version="1.1" xmlns:xlink="http://www.w3.org/1999/xlink" xmlns:svgjs="http://svgjs.dev/svgjs" width="1500" height="1500" viewBox="0 0 1500 1500"><rect width="1500" height="1500" fill="#000000"></rect><g transform="matrix(0.6666666666666666,0,0,0.6666666666666666,247.77981991503788,47.40752688172046)"><svg viewBox="0 0 177 248" data-background-color="#ffffff" preserveAspectRatio="xMidYMid meet" height="2101" width="1500" xmlns="http://www.w3.org/2000/svg" xmlns:xlink="http://www.w3.org/1999/xlink"><g id="tight-bounds" transform="matrix(1,0,0,1,0.3935146114481256,0.4000000000000057)"><svg viewBox="0 0 176.21351351351353 247.2" height="247.2" width="176.21351351351353"><g><svg viewBox="0 0 176.21351351351353 247.2" height="247.2" width="176.21351351351353"><g><svg viewBox="0 0 176.21351351351353 247.2" height="247.2" width="176.21351351351353"><g id="textblocktransform"><svg viewBox="0 0 176.21351351351353 247.2" height="247.2" width="176.21351351351353" id="textblock"><g><svg viewBox="0 0 176.21351351351353 247.2" height="247.2" width="176.21351351351353"><g transform="matrix(1,0,0,1,0,0)"><svg width="176.21351351351353" viewBox="0.7938271728399999 -35.15 25.05617282716 35.15" height="247.2" data-palette-color="#6575a8"><path d="M11.15 0Q10.55 0 10.45-0.2 10.35-0.4 10.35-0.93 10.35-1.45 10.35-1.7L10.35-1.7 10.55-7.9Q10.85-16 10.85-18.3L10.85-18.3Q10.85-19.6 10.75-22.2L10.75-22.2 10.7-24.85Q7.1-24.85 3.4-24.75L3.4-24.75 1.85-24.7Q1.2-24.7 0.95-25.05 0.7-25.4 0.85-25.85L0.85-25.85 0.9-27.1Q1-30 1-32.45L1-32.45Q1-33.65 0.95-33.9L0.95-33.9 0.95-34.25Q0.95-34.8 1.18-34.9 1.4-35 1.85-35L1.85-35 6.8-35 9.6-35.05Q12.2-35.15 13.25-35.15L13.25-35.15 16.25-35.1Q19.85-35 21.9-35L21.9-35Q23.4-35 23.85-35.05L23.85-35.05Q24.95-35.1 25.4-34.73 25.85-34.35 25.85-33.9L25.85-33.9Q25.85-33.65 25.78-32.6 25.7-31.55 25.7-30L25.7-30Q25.7-28.6 25.85-26.2L25.85-26.2Q25.85-24.85 24.1-24.85L24.1-24.85 15.3-24.85 15.2-19.7Q15.15-18.85 15.15-15.45L15.15-15.45Q15.15-11.95 15.2-8.65 15.25-5.35 15.25-2.95L15.25-2.95 15.3-0.9 15.3-0.65Q15.3-0.2 15.18-0.1 15.05 0 14.85 0 14.65 0 14.55 0L14.55 0 11.15 0Z" opacity="1" transform="matrix(1,0,0,1,0,0)" fill="#ffffff" class="wordmark-text-0" data-fill-palette-color="primary" id="text-0"></path></svg></g></svg></g></svg></g></svg></g></svg></g><defs></defs></svg><rect width="176.21351351351353" height="247.2" fill="none" stroke="none" visibility="hidden"></rect></g></svg></g></svg>